<svg version="1.1" id="Layer_1" xmlns="http://www.w3.org/2000/svg" xmlns:xlink="http://www.w3.org/1999/xlink" x="0px" y="0px"
	 width="100%" viewBox="0 0 1779 2000" enable-background="new 0 0 1779 2000" xml:space="preserve">
<path fill="#5E97D0" opacity="1.000000" stroke="none" 
	d="
M869.000000,1.000001 
	C882.690735,1.000000 896.381531,1.000000 910.842529,1.242387 
	C935.860901,5.090395 958.627319,13.053745 979.848938,25.246979 
	C1026.537231,52.072472 1073.113525,79.092873 1119.769043,105.975365 
	C1151.445190,124.226799 1183.208008,142.327835 1214.878540,160.588821 
	C1254.333130,183.337997 1293.711304,206.219345 1333.163696,228.972122 
	C1356.489990,242.424744 1379.922241,255.693695 1403.259399,269.127594 
	C1431.050659,285.125549 1458.769775,301.249329 1486.560303,317.248627 
	C1512.199219,332.009186 1537.935791,346.600372 1563.547485,361.407745 
	C1588.713379,375.957397 1613.748291,390.733459 1638.895142,405.316498 
	C1653.838013,413.982178 1668.796143,422.629059 1683.907837,430.994812 
	C1706.328735,443.406921 1727.218994,457.758972 1743.294434,478.049805 
	C1748.708252,484.883087 1753.075562,492.545319 1757.615723,499.994049 
	C1704.668823,530.524048 1652.039062,560.908691 1599.382812,591.247559 
	C1550.188721,619.591492 1500.949951,647.857605 1451.765991,676.219055 
	C1434.767090,686.021362 1417.874023,696.007019 1400.965576,705.542786 
	C1400.351318,703.676819 1399.857178,702.086487 1399.033691,700.690369 
	C1376.934570,663.217468 1351.102417,628.503052 1321.208618,596.910645 
	C1237.808228,508.771484 1137.087036,450.670532 1018.559082,424.248840 
	C994.811890,418.955170 970.532593,415.595306 946.322144,412.972504 
	C925.908264,410.760986 905.243042,410.764954 884.678955,410.104401 
	C878.074585,409.892273 871.437134,410.675537 864.815918,411.024445 
	C854.883301,411.547852 844.877991,411.506439 835.035461,412.749634 
	C816.505310,415.090210 798.007385,417.824341 779.613953,421.064270 
	C765.109314,423.619232 750.610474,426.546783 736.402588,430.393005 
	C635.591797,457.683777 547.926880,508.152069 474.010101,581.834961 
	C389.908722,665.670227 335.828308,766.034424 311.481354,882.351440 
	C305.644073,910.239075 301.678375,938.459412 300.335327,966.821350 
	C299.133850,992.194214 299.857330,1017.747253 301.270142,1043.135132 
	C303.676636,1086.379028 311.836029,1128.727051 324.185547,1170.253906 
	C337.255798,1214.204346 355.478943,1255.937256 377.708984,1295.792236 
	C375.819946,1296.471069 374.240082,1297.018677 372.816925,1297.838379 
	C271.610138,1356.124146 170.423553,1414.445190 69.212761,1472.724121 
	C53.193783,1481.948120 37.070095,1490.990356 20.737362,1499.876221 
	C12.075243,1484.038208 6.566604,1467.445557 3.389948,1450.043945 
	C2.655058,1446.018066 1.799842,1442.014038 0.999993,1438.000000 
	C1.000000,1147.309204 1.000000,856.618469 1.245876,565.151611 
	C2.413779,558.492798 3.027884,552.542175 4.307257,546.738220 
	C13.370023,505.624695 34.589684,472.190002 69.252991,448.213776 
	C86.685211,436.156067 105.383522,425.893890 123.735207,415.207764 
	C162.201645,392.808807 200.796280,370.629547 239.378067,348.429291 
	C279.974609,325.069672 320.628052,301.808960 361.237122,278.471130 
	C395.081146,259.021179 428.886719,239.504364 462.728058,220.049683 
	C498.739380,199.347504 534.805237,178.739990 570.787476,157.987518 
	C608.358521,136.318710 645.852234,114.515877 683.390991,92.791046 
	C716.913574,73.390541 750.566223,54.211311 783.939087,34.556797 
	C803.477356,23.049952 823.299988,12.336337 845.355408,6.472348 
	C853.169495,4.394762 861.114685,2.809844 869.000000,1.000001 
z"/>
<path fill="#044F88" opacity="1.000000" stroke="none" 
	d="
M20.994816,1500.116699 
	C37.070095,1490.990356 53.193783,1481.948120 69.212761,1472.724121 
	C170.423553,1414.445190 271.610138,1356.124146 372.816925,1297.838379 
	C374.240082,1297.018677 375.819946,1296.471069 377.924377,1296.069824 
	C406.032471,1343.738281 439.407593,1386.537964 478.633972,1424.830566 
	C529.071350,1474.067505 586.829895,1512.549927 650.796875,1541.720093 
	C667.822632,1549.484009 685.644836,1555.609863 703.377258,1561.682251 
	C718.116394,1566.729492 733.135803,1571.098022 748.260376,1574.840332 
	C763.147339,1578.524292 778.273010,1581.325317 793.386658,1583.987183 
	C806.807190,1586.350586 820.305359,1588.509155 833.860413,1589.805298 
	C847.330811,1591.093628 860.917297,1591.749756 874.448303,1591.687988 
	C895.829895,1591.590210 917.246582,1591.264404 938.574524,1589.889404 
	C954.976196,1588.832153 971.428223,1586.866943 987.563965,1583.772827 
	C1011.297791,1579.221680 1035.114502,1574.485840 1058.280273,1567.720337 
	C1104.363403,1554.261841 1148.138428,1535.093262 1189.534424,1510.592407 
	C1254.222290,1472.306152 1310.095825,1423.882202 1355.828735,1364.263062 
	C1372.812744,1342.121948 1387.372070,1318.120850 1403.391724,1295.045166 
	C1405.286255,1295.738525 1406.928955,1296.176270 1408.350464,1296.997070 
	C1431.394043,1310.306274 1454.420654,1323.644531 1477.428467,1337.015259 
	C1514.964600,1358.829102 1552.468506,1380.698730 1590.015015,1402.494995 
	C1636.056885,1429.222778 1682.145142,1455.870850 1728.174927,1482.619629 
	C1738.514526,1488.627930 1748.695557,1494.909302 1758.816895,1501.377930 
	C1746.895874,1523.251465 1730.545044,1540.770142 1710.408936,1554.592773 
	C1698.937866,1562.467041 1686.809814,1569.409180 1674.798340,1576.466187 
	C1653.451294,1589.008057 1631.991699,1601.359253 1610.535400,1613.714111 
	C1586.366455,1627.630859 1562.119263,1641.411499 1537.961060,1655.346680 
	C1513.190186,1669.634888 1488.521362,1684.100098 1463.741333,1698.372192 
	C1442.165283,1710.798950 1420.468384,1723.015381 1398.875977,1735.413696 
	C1374.365112,1749.487671 1349.921875,1763.679565 1325.429688,1777.786255 
	C1293.449951,1796.205566 1261.433105,1814.560181 1229.467285,1833.003296 
	C1210.324707,1844.048096 1191.279541,1855.261719 1172.135864,1866.304565 
	C1147.803467,1880.340454 1123.394409,1894.243286 1099.057861,1908.271973 
	C1075.449829,1921.880981 1051.903442,1935.597168 1028.306763,1949.226074 
	C1014.628052,1957.126831 1000.914673,1964.967529 987.197205,1972.800659 
	C971.043701,1982.025146 954.608704,1990.601562 936.374146,1995.112183 
	C928.888672,1996.963867 921.456421,1999.030884 914.000000,2001.000000 
	C898.979126,2001.000000 883.958191,2001.000000 868.223267,2000.735596 
	C861.530457,1999.281860 855.517944,1998.239258 849.579285,1996.875000 
	C833.132690,1993.096924 817.717651,1986.583496 803.022583,1978.432983 
	C789.690369,1971.038208 776.624329,1963.165039 763.395874,1955.581299 
	C754.190979,1950.304199 744.846619,1945.268799 735.674500,1939.936279 
	C707.283691,1923.430054 678.994934,1906.747925 650.573730,1890.294556 
	C619.667664,1872.402344 588.637756,1854.724121 557.698669,1836.888794 
	C530.064636,1820.958740 502.494995,1804.917114 474.870636,1788.970215 
	C448.388489,1773.682617 421.873138,1758.452393 395.371033,1743.199219 
	C355.764343,1720.403687 316.167114,1697.591797 276.545349,1674.822510 
	C252.925247,1661.248901 229.245316,1647.779297 205.629272,1634.198608 
	C170.658279,1614.088135 135.757202,1593.856079 100.753525,1573.802856 
	C81.581825,1562.819458 62.674538,1551.528198 47.019955,1535.604370 
	C36.620968,1525.026245 27.763910,1513.343628 20.994816,1500.116699 
z"/>
<path fill="#1463A3" opacity="1.000000" stroke="none" 
	d="
M1758.949585,1501.064941 
	C1748.695557,1494.909302 1738.514526,1488.627930 1728.174927,1482.619629 
	C1682.145142,1455.870850 1636.056885,1429.222778 1590.015015,1402.494995 
	C1552.468506,1380.698730 1514.964600,1358.829102 1477.428467,1337.015259 
	C1454.420654,1323.644531 1431.394043,1310.306274 1408.350464,1296.997070 
	C1406.928955,1296.176270 1405.286255,1295.738525 1403.285889,1294.717529 
	C1401.649048,1293.428711 1400.549683,1292.412720 1399.286011,1291.679810 
	C1316.494995,1243.660400 1233.692871,1195.659790 1150.869385,1147.696289 
	C1149.353394,1146.818359 1147.567017,1146.407227 1145.701660,1145.528076 
	C1145.128052,1144.943115 1144.804810,1144.530640 1144.384277,1144.284424 
	C1123.270508,1131.925293 1102.181152,1119.524292 1081.019043,1107.248413 
	C1054.531128,1091.883057 1027.975098,1076.634521 1001.462097,1061.312256 
	C969.033203,1042.571289 936.603821,1023.831238 904.218262,1005.015808 
	C900.667908,1002.953064 897.404358,1000.396606 894.227905,997.809570 
	C915.489258,985.351990 936.507690,973.114319 957.576355,960.963867 
	C1006.936035,932.497681 1056.333740,904.097351 1105.684448,875.615417 
	C1118.514038,868.210999 1131.227295,860.605103 1144.361694,853.091797 
	C1159.617676,844.630127 1174.544189,836.234985 1189.387817,827.695557 
	C1259.915039,787.121582 1330.419800,746.508240 1400.932495,705.908875 
	C1417.874023,696.007019 1434.767090,686.021362 1451.765991,676.219055 
	C1500.949951,647.857605 1550.188721,619.591492 1599.382812,591.247559 
	C1652.039062,560.908691 1704.668823,530.524048 1757.896973,500.207947 
	C1759.364014,501.654480 1760.327393,503.007477 1761.111328,504.457489 
	C1768.125244,517.432312 1772.781372,531.274780 1775.831543,545.649353 
	C1777.471802,553.379639 1778.626221,561.213135 1780.000000,569.000000 
	C1780.000000,857.020935 1780.000000,1145.041870 1779.720337,1433.815430 
	C1778.956665,1438.007812 1778.489014,1441.449829 1777.986328,1444.886841 
	C1775.077148,1464.776611 1769.246948,1483.678101 1758.949585,1501.064941 
M1530.923828,1034.107788 
	C1552.534058,1034.107788 1574.144287,1034.107788 1596.326172,1034.107788 
	C1596.326172,1057.016602 1596.326172,1079.255127 1596.326172,1101.681152 
	C1619.146973,1101.681152 1641.390015,1101.681152 1664.223145,1101.681152 
	C1664.223145,1079.180298 1664.223145,1056.950806 1664.223145,1034.067139 
	C1687.015015,1034.067139 1709.227173,1034.067139 1731.646484,1034.067139 
	C1731.646484,1011.300781 1731.646484,989.199341 1731.646484,966.469727 
	C1709.242065,966.469727 1687.003296,966.469727 1664.121338,966.469727 
	C1664.121338,943.634338 1664.121338,921.416504 1664.121338,899.149902 
	C1641.229126,899.149902 1618.990967,899.149902 1596.119995,899.149902 
	C1596.119995,921.689392 1596.119995,943.909973 1596.119995,966.610840 
	C1573.399780,966.610840 1551.310791,966.610840 1529.103027,966.610840 
	C1528.974609,967.897888 1528.820557,968.710815 1528.822998,969.523132 
	C1528.889404,990.680786 1528.972168,1011.838379 1529.019409,1033.577515 
	C1529.347046,1033.693359 1529.674683,1033.809082 1530.923828,1034.107788 
M1282.073242,1033.556519 
	C1282.383057,1033.679321 1282.692871,1033.802246 1283.924194,1034.107910 
	C1305.543091,1034.107910 1327.162109,1034.107910 1349.375488,1034.107910 
	C1349.375488,1056.937012 1349.375488,1079.177612 1349.375488,1101.686035 
	C1372.217896,1101.686035 1394.461670,1101.686035 1417.367920,1101.686035 
	C1417.367920,1099.660889 1417.367920,1097.888306 1417.367920,1096.115601 
	C1417.368164,1077.119751 1417.469238,1058.122925 1417.286011,1039.128906 
	C1417.248047,1035.202637 1418.363892,1034.029175 1422.338501,1034.070679 
	C1441.332275,1034.269043 1460.329224,1034.158081 1479.325073,1034.157104 
	C1481.081909,1034.156982 1482.838867,1034.157104 1484.592529,1034.157104 
	C1484.592529,1011.216492 1484.592529,989.011292 1484.592529,966.317749 
	C1462.120117,966.317749 1440.023682,966.317749 1417.257446,966.317749 
	C1417.257446,943.624268 1417.257446,921.412415 1417.257446,899.156067 
	C1394.333130,899.156067 1372.087891,899.156067 1349.200806,899.156067 
	C1349.200806,921.704590 1349.200806,943.928040 1349.200806,966.600586 
	C1326.457764,966.600586 1304.355469,966.600586 1282.125366,966.600586 
	C1282.125366,989.040527 1282.125366,1011.015686 1282.073242,1033.556519 
z"/>
<path fill="#47704C" opacity="1.000000" stroke="none" 
	d="
M1780.000000,568.531372 
	C1778.626221,561.213135 1777.471802,553.379639 1775.831543,545.649353 
	C1772.781372,531.274780 1768.125244,517.432312 1761.111328,504.457489 
	C1760.327393,503.007477 1759.364014,501.654480 1758.202393,500.042542 
	C1753.075562,492.545319 1748.708252,484.883087 1743.294434,478.049805 
	C1727.218994,457.758972 1706.328735,443.406921 1683.907837,430.994812 
	C1668.796143,422.629059 1653.838013,413.982178 1638.895142,405.316498 
	C1613.748291,390.733459 1588.713379,375.957397 1563.547485,361.407745 
	C1537.935791,346.600372 1512.199219,332.009186 1486.560303,317.248627 
	C1458.769775,301.249329 1431.050659,285.125549 1403.259399,269.127594 
	C1379.922241,255.693695 1356.489990,242.424744 1333.163696,228.972122 
	C1293.711304,206.219345 1254.333130,183.337997 1214.878540,160.588821 
	C1183.208008,142.327835 1151.445190,124.226799 1119.769043,105.975365 
	C1073.113525,79.092873 1026.537231,52.072472 979.848938,25.246979 
	C958.627319,13.053745 935.860901,5.090395 911.306396,1.242387 
	C1200.578491,1.000000 1490.156982,1.000000 1780.000000,1.000000 
	C1780.000000,190.020813 1780.000000,379.041748 1780.000000,568.531372 
z"/>
<path fill="#47704C" opacity="1.000000" stroke="none" 
	d="
M1758.816895,1501.377930 
	C1769.246948,1483.678101 1775.077148,1464.776611 1777.986328,1444.886841 
	C1778.489014,1441.449829 1778.956665,1438.007812 1779.720337,1434.284058 
	C1780.000000,1622.942261 1780.000000,1811.884644 1780.000000,2001.000000 
	C1491.645752,2001.000000 1203.291504,2001.000000 914.468628,2001.000000 
	C921.456421,1999.030884 928.888672,1996.963867 936.374146,1995.112183 
	C954.608704,1990.601562 971.043701,1982.025146 987.197205,1972.800659 
	C1000.914673,1964.967529 1014.628052,1957.126831 1028.306763,1949.226074 
	C1051.903442,1935.597168 1075.449829,1921.880981 1099.057861,1908.271973 
	C1123.394409,1894.243286 1147.803467,1880.340454 1172.135864,1866.304565 
	C1191.279541,1855.261719 1210.324707,1844.048096 1229.467285,1833.003296 
	C1261.433105,1814.560181 1293.449951,1796.205566 1325.429688,1777.786255 
	C1349.921875,1763.679565 1374.365112,1749.487671 1398.875977,1735.413696 
	C1420.468384,1723.015381 1442.165283,1710.798950 1463.741333,1698.372192 
	C1488.521362,1684.100098 1513.190186,1669.634888 1537.961060,1655.346680 
	C1562.119263,1641.411499 1586.366455,1627.630859 1610.535400,1613.714111 
	C1631.991699,1601.359253 1653.451294,1589.008057 1674.798340,1576.466187 
	C1686.809814,1569.409180 1698.937866,1562.467041 1710.408936,1554.592773 
	C1730.545044,1540.770142 1746.895874,1523.251465 1758.816895,1501.377930 
z"/>
<path fill="#47704C" opacity="1.000000" stroke="none" 
	d="
M868.531372,1.000001 
	C861.114685,2.809844 853.169495,4.394762 845.355408,6.472348 
	C823.299988,12.336337 803.477356,23.049952 783.939087,34.556797 
	C750.566223,54.211311 716.913574,73.390541 683.390991,92.791046 
	C645.852234,114.515877 608.358521,136.318710 570.787476,157.987518 
	C534.805237,178.739990 498.739380,199.347504 462.728058,220.049683 
	C428.886719,239.504364 395.081146,259.021179 361.237122,278.471130 
	C320.628052,301.808960 279.974609,325.069672 239.378067,348.429291 
	C200.796280,370.629547 162.201645,392.808807 123.735207,415.207764 
	C105.383522,425.893890 86.685211,436.156067 69.252991,448.213776 
	C34.589684,472.190002 13.370023,505.624695 4.307257,546.738220 
	C3.027884,552.542175 2.413779,558.492798 1.245876,564.687744 
	C1.000000,377.057434 1.000000,189.114853 1.000000,1.000000 
	C290.020874,1.000000 579.041748,1.000000 868.531372,1.000001 
z"/>
<path fill="#47704C" opacity="1.000000" stroke="none" 
	d="
M20.737343,1499.876099 
	C27.763910,1513.343628 36.620968,1525.026245 47.019955,1535.604370 
	C62.674538,1551.528198 81.581825,1562.819458 100.753525,1573.802856 
	C135.757202,1593.856079 170.658279,1614.088135 205.629272,1634.198608 
	C229.245316,1647.779297 252.925247,1661.248901 276.545349,1674.822510 
	C316.167114,1697.591797 355.764343,1720.403687 395.371033,1743.199219 
	C421.873138,1758.452393 448.388489,1773.682617 474.870636,1788.970215 
	C502.494995,1804.917114 530.064636,1820.958740 557.698669,1836.888794 
	C588.637756,1854.724121 619.667664,1872.402344 650.573730,1890.294556 
	C678.994934,1906.747925 707.283691,1923.430054 735.674500,1939.936279 
	C744.846619,1945.268799 754.190979,1950.304199 763.395874,1955.581299 
	C776.624329,1963.165039 789.690369,1971.038208 803.022583,1978.432983 
	C817.717651,1986.583496 833.132690,1993.096924 849.579285,1996.875000 
	C855.517944,1998.239258 861.530457,1999.281860 867.754639,2000.735596 
	C579.088379,2001.000000 290.176819,2001.000000 1.000000,2001.000000 
	C1.000000,1813.645874 1.000000,1626.291504 0.999993,1438.468628 
	C1.799842,1442.014038 2.655058,1446.018066 3.389948,1450.043945 
	C6.566604,1467.445557 12.075243,1484.038208 20.737343,1499.876099 
z"/>
<path fill="#FFFFFF" opacity="1.000000" stroke="none" 
	d="
M1145.906860,1145.778320 
	C1147.567017,1146.407227 1149.353394,1146.818359 1150.869385,1147.696289 
	C1233.692871,1195.659790 1316.494995,1243.660400 1399.286011,1291.679810 
	C1400.549683,1292.412720 1401.649048,1293.428711 1402.931152,1294.640137 
	C1387.372070,1318.120850 1372.812744,1342.121948 1355.828735,1364.263062 
	C1310.095825,1423.882202 1254.222290,1472.306152 1189.534424,1510.592407 
	C1148.138428,1535.093262 1104.363403,1554.261841 1058.280273,1567.720337 
	C1035.114502,1574.485840 1011.297791,1579.221680 987.563965,1583.772827 
	C971.428223,1586.866943 954.976196,1588.832153 938.574524,1589.889404 
	C917.246582,1591.264404 895.829895,1591.590210 874.448303,1591.687988 
	C860.917297,1591.749756 847.330811,1591.093628 833.860413,1589.805298 
	C820.305359,1588.509155 806.807190,1586.350586 793.386658,1583.987183 
	C778.273010,1581.325317 763.147339,1578.524292 748.260376,1574.840332 
	C733.135803,1571.098022 718.116394,1566.729492 703.377258,1561.682251 
	C685.644836,1555.609863 667.822632,1549.484009 650.796875,1541.720093 
	C586.829895,1512.549927 529.071350,1474.067505 478.633972,1424.830566 
	C439.407593,1386.537964 406.032471,1343.738281 378.306671,1296.065430 
	C355.478943,1255.937256 337.255798,1214.204346 324.185547,1170.253906 
	C311.836029,1128.727051 303.676636,1086.379028 301.270142,1043.135132 
	C299.857330,1017.747253 299.133850,992.194214 300.335327,966.821350 
	C301.678375,938.459412 305.644073,910.239075 311.481354,882.351440 
	C335.828308,766.034424 389.908722,665.670227 474.010101,581.834961 
	C547.926880,508.152069 635.591797,457.683777 736.402588,430.393005 
	C750.610474,426.546783 765.109314,423.619232 779.613953,421.064270 
	C798.007385,417.824341 816.505310,415.090210 835.035461,412.749634 
	C844.877991,411.506439 854.883301,411.547852 864.815918,411.024445 
	C871.437134,410.675537 878.074585,409.892273 884.678955,410.104401 
	C905.243042,410.764954 925.908264,410.760986 946.322144,412.972504 
	C970.532593,415.595306 994.811890,418.955170 1018.559082,424.248840 
	C1137.087036,450.670532 1237.808228,508.771484 1321.208618,596.910645 
	C1351.102417,628.503052 1376.934570,663.217468 1399.033691,700.690369 
	C1399.857178,702.086487 1400.351318,703.676819 1400.965576,705.542786 
	C1330.419800,746.508240 1259.915039,787.121582 1189.387817,827.695557 
	C1174.544189,836.234985 1159.617676,844.630127 1144.267090,852.755249 
	C1129.713379,828.198242 1112.470581,806.451538 1092.032715,787.309509 
	C1057.280884,754.760986 1017.487732,730.859802 971.190369,718.761047 
	C955.689453,714.710266 939.934875,710.997070 924.061584,709.184204 
	C908.535339,707.410950 892.707886,708.340454 877.016602,707.932495 
	C856.105408,707.388794 835.608093,710.922302 815.780640,716.633972 
	C708.289856,747.598816 638.645203,817.185364 606.479248,924.227966 
	C601.124939,942.046143 598.161926,960.391357 596.918945,979.168396 
	C596.836609,979.891724 596.899841,980.446228 596.939026,981.465332 
	C596.942078,994.953186 596.969238,1007.976624 596.863770,1021.180115 
	C596.839966,1021.906372 596.948853,1022.452454 597.040344,1023.449951 
	C597.600708,1028.819458 598.149414,1033.741211 598.761169,1038.655029 
	C601.778931,1062.895264 607.569702,1086.482910 617.016663,1108.987793 
	C622.332581,1121.651611 629.077393,1133.715454 635.204895,1146.397217 
	C637.116516,1150.005493 638.893127,1153.334839 640.903259,1156.516602 
	C670.610107,1203.537598 710.109192,1239.773926 759.971619,1264.608887 
	C779.398376,1274.284668 799.454346,1282.288208 820.699402,1286.908447 
	C831.820374,1289.327148 843.051575,1291.399170 854.330872,1292.885010 
	C865.717957,1294.385132 877.212280,1295.465210 888.685730,1295.779907 
	C896.680359,1295.999023 904.710815,1294.188721 912.739441,1294.037842 
	C929.442444,1293.723999 945.505798,1290.134277 961.627869,1286.174927 
	C988.028381,1279.691162 1012.939331,1269.682007 1036.405518,1256.099609 
	C1082.839844,1229.223267 1119.448975,1192.519897 1145.906860,1145.778320 
z"/>
<path fill="#5E97D0" opacity="1.000000" stroke="none" 
	d="
M597.064514,978.999634 
	C598.161926,960.391357 601.124939,942.046143 606.479248,924.227966 
	C638.645203,817.185364 708.289856,747.598816 815.780640,716.633972 
	C835.608093,710.922302 856.105408,707.388794 877.016602,707.932495 
	C892.707886,708.340454 908.535339,707.410950 924.061584,709.184204 
	C939.934875,710.997070 955.689453,714.710266 971.190369,718.761047 
	C1017.487732,730.859802 1057.280884,754.760986 1092.032715,787.309509 
	C1112.470581,806.451538 1129.713379,828.198242 1143.899414,852.755249 
	C1131.227295,860.605103 1118.514038,868.210999 1105.684448,875.615417 
	C1056.333740,904.097351 1006.936035,932.497681 957.576355,960.963867 
	C936.507690,973.114319 915.489258,985.351990 893.884644,997.874878 
	C892.137573,998.803406 890.924438,999.355713 889.774597,1000.018066 
	C814.344421,1043.464233 738.928894,1086.935913 663.481689,1130.352539 
	C654.132324,1135.732788 644.616943,1140.824219 635.178467,1146.049561 
	C629.077393,1133.715454 622.332581,1121.651611 617.016663,1108.987793 
	C607.569702,1086.482910 601.778931,1062.895264 598.761169,1038.655029 
	C598.149414,1033.741211 597.600708,1028.819458 597.170288,1023.268921 
	C597.210571,1022.091003 597.103455,1021.545532 596.996399,1021.000000 
	C596.969238,1007.976624 596.942078,994.953186 597.090820,981.299438 
	C597.199341,980.112610 597.131958,979.556091 597.064514,978.999634 
z"/>
<path fill="#044F88" opacity="1.000000" stroke="none" 
	d="
M635.204895,1146.397217 
	C644.616943,1140.824219 654.132324,1135.732788 663.481689,1130.352539 
	C738.928894,1086.935913 814.344421,1043.464233 889.774597,1000.018066 
	C890.924438,999.355713 892.137573,998.803406 893.664429,998.134460 
	C897.404358,1000.396606 900.667908,1002.953064 904.218262,1005.015808 
	C936.603821,1023.831238 969.033203,1042.571289 1001.462097,1061.312256 
	C1027.975098,1076.634521 1054.531128,1091.883057 1081.019043,1107.248413 
	C1102.181152,1119.524292 1123.270508,1131.925293 1144.384277,1144.284424 
	C1144.804810,1144.530640 1145.128052,1144.943115 1145.701660,1145.528076 
	C1119.448975,1192.519897 1082.839844,1229.223267 1036.405518,1256.099609 
	C1012.939331,1269.682007 988.028381,1279.691162 961.627869,1286.174927 
	C945.505798,1290.134277 929.442444,1293.723999 912.739441,1294.037842 
	C904.710815,1294.188721 896.680359,1295.999023 888.685730,1295.779907 
	C877.212280,1295.465210 865.717957,1294.385132 854.330872,1292.885010 
	C843.051575,1291.399170 831.820374,1289.327148 820.699402,1286.908447 
	C799.454346,1282.288208 779.398376,1274.284668 759.971619,1264.608887 
	C710.109192,1239.773926 670.610107,1203.537598 640.903259,1156.516602 
	C638.893127,1153.334839 637.116516,1150.005493 635.204895,1146.397217 
z"/>
<path fill="#FFFFFF" opacity="1.000000" stroke="none" 
	d="
M1282.125366,1032.990845 
	C1282.125366,1011.015686 1282.125366,989.040527 1282.125366,966.600586 
	C1304.355469,966.600586 1326.457764,966.600586 1349.200806,966.600586 
	C1349.200806,943.928040 1349.200806,921.704590 1349.200806,899.156067 
	C1372.087891,899.156067 1394.333130,899.156067 1417.257446,899.156067 
	C1417.257446,921.412415 1417.257446,943.624268 1417.257446,966.317749 
	C1440.023682,966.317749 1462.120117,966.317749 1484.592529,966.317749 
	C1484.592529,989.011292 1484.592529,1011.216492 1484.592529,1034.157104 
	C1482.838867,1034.157104 1481.081909,1034.156982 1479.325073,1034.157104 
	C1460.329224,1034.158081 1441.332275,1034.269043 1422.338501,1034.070679 
	C1418.363892,1034.029175 1417.248047,1035.202637 1417.286011,1039.128906 
	C1417.469238,1058.122925 1417.368164,1077.119751 1417.367920,1096.115601 
	C1417.367920,1097.888306 1417.367920,1099.660889 1417.367920,1101.686035 
	C1394.461670,1101.686035 1372.217896,1101.686035 1349.375488,1101.686035 
	C1349.375488,1079.177612 1349.375488,1056.937012 1349.375488,1034.107910 
	C1327.162109,1034.107910 1305.543091,1034.107910 1283.354492,1033.828857 
	C1282.599976,1033.322266 1282.380127,1033.135986 1282.125366,1032.990845 
z"/>
<path fill="#FFFFFF" opacity="1.000000" stroke="none" 
	d="
M1529.052124,1032.995972 
	C1528.972168,1011.838379 1528.889404,990.680786 1528.822998,969.523132 
	C1528.820557,968.710815 1528.974609,967.897888 1529.103027,966.610840 
	C1551.310791,966.610840 1573.399780,966.610840 1596.119995,966.610840 
	C1596.119995,943.909973 1596.119995,921.689392 1596.119995,899.149902 
	C1618.990967,899.149902 1641.229126,899.149902 1664.121338,899.149902 
	C1664.121338,921.416504 1664.121338,943.634338 1664.121338,966.469727 
	C1687.003296,966.469727 1709.242065,966.469727 1731.646484,966.469727 
	C1731.646484,989.199341 1731.646484,1011.300781 1731.646484,1034.067139 
	C1709.227173,1034.067139 1687.015015,1034.067139 1664.223145,1034.067139 
	C1664.223145,1056.950806 1664.223145,1079.180298 1664.223145,1101.681152 
	C1641.390015,1101.681152 1619.146973,1101.681152 1596.326172,1101.681152 
	C1596.326172,1079.255127 1596.326172,1057.016602 1596.326172,1034.107788 
	C1574.144287,1034.107788 1552.534058,1034.107788 1530.341919,1033.826416 
	C1529.563965,1033.310547 1529.328003,1033.127563 1529.052124,1032.995972 
z"/>
<path fill="#E2ECF3" opacity="1.000000" stroke="none" 
	d="
M1282.099365,1033.273682 
	C1282.380127,1033.135986 1282.599976,1033.322266 1282.893799,1033.737305 
	C1282.692871,1033.802246 1282.383057,1033.679321 1282.099365,1033.273682 
z"/>
<path fill="#E2ECF3" opacity="1.000000" stroke="none" 
	d="
M1529.035767,1033.286743 
	C1529.328003,1033.127563 1529.563965,1033.310547 1529.881104,1033.734985 
	C1529.674683,1033.809082 1529.347046,1033.693359 1529.035767,1033.286743 
z"/>
<path fill="#B0CCE8" opacity="1.000000" stroke="none" 
	d="
M596.863770,1021.180115 
	C597.103455,1021.545532 597.210571,1022.091003 597.187744,1022.817566 
	C596.948853,1022.452454 596.839966,1021.906372 596.863770,1021.180115 
z"/>
<path fill="#B0CCE8" opacity="1.000000" stroke="none" 
	d="
M596.918945,979.168396 
	C597.131958,979.556091 597.199341,980.112610 597.114868,980.834961 
	C596.899841,980.446228 596.836609,979.891724 596.918945,979.168396 
z"/>
</svg>