<?xml version="1.0" standalone="no"?>
<!DOCTYPE svg PUBLIC "-//W3C//DTD SVG 20010904//EN"
 "http://www.w3.org/TR/2001/REC-SVG-20010904/DTD/svg10.dtd">
<svg version="1.0" xmlns="http://www.w3.org/2000/svg"
 width="566.000000pt" height="89.000000pt" viewBox="0 0 566.000000 89.000000"
 preserveAspectRatio="xMidYMid meet">

<g transform="translate(0.000000,89.000000) scale(0.100000,-0.100000)"
fill="#000000" stroke="none">
<path d="M2970 875 c-104 -30 -190 -94 -251 -187 -79 -123 -92 -292 -31 -421
42 -91 126 -178 211 -220 63 -31 71 -32 186 -32 115 0 123 1 186 32 84 42 169
129 211 218 43 92 50 212 19 313 -38 125 -142 237 -264 284 -70 27 -195 33
-267 13z m223 -131 c63 -21 140 -92 173 -161 57 -115 30 -267 -63 -360 -64
-64 -124 -88 -218 -88 -94 0 -149 22 -215 87 -96 92 -124 244 -67 360 33 67
109 140 170 161 56 20 162 21 220 1z"/>
<path d="M10 805 l0 -65 130 0 130 0 0 -365 0 -365 60 0 60 0 0 365 0 364 128
3 127 3 3 63 3 62 -321 0 -320 0 0 -65z"/>
<path d="M710 441 l0 -431 60 0 60 0 0 366 0 366 136 -4 136 -3 33 -37 c59
-64 57 -154 -5 -213 -30 -29 -35 -30 -141 -33 l-109 -4 0 -31 c0 -26 28 -66
156 -219 l155 -188 345 0 344 0 0 60 0 60 -200 0 -200 0 0 125 0 125 195 0
196 0 -3 63 -3 62 -192 3 -193 2 0 120 0 120 199 0 200 0 3 30 c2 21 45 -75
162 -370 l160 -400 46 0 46 0 171 428 171 427 -55 3 c-31 2 -61 1 -67 -1 -6
-3 -67 -145 -136 -316 -68 -171 -127 -311 -130 -311 -3 0 -62 142 -131 315
l-124 315 -322 0 -323 0 -2 -426 -3 -426 -123 147 c-133 158 -144 175 -117
175 34 0 117 55 144 95 38 56 51 98 51 169 -1 102 -54 191 -145 239 -36 20
-58 22 -242 25 l-203 4 0 -431z"/>
<path d="M3600 441 l0 -431 60 0 60 0 0 366 0 366 136 -4 136 -3 33 -37 c59
-64 57 -154 -5 -213 -30 -29 -35 -30 -141 -33 l-109 -4 0 -31 c0 -26 28 -66
156 -219 l155 -188 81 0 80 0 -44 52 c-23 29 -82 99 -130 156 -49 57 -88 108
-88 113 0 5 7 9 16 9 33 0 117 55 143 95 38 56 51 98 51 169 -1 102 -54 191
-145 239 -36 20 -58 22 -242 25 l-203 4 0 -431z"/>
<path d="M4250 440 l0 -430 60 0 60 0 0 430 0 430 -60 0 -60 0 0 -430z"/>
<path d="M4547 673 c-125 -168 -147 -202 -147 -232 0 -32 20 -60 162 -234
l162 -197 78 0 c43 0 78 2 78 4 0 2 -77 96 -171 208 -94 111 -173 208 -176
215 -4 9 165 238 310 421 7 9 -8 12 -69 12 l-79 0 -148 -197z"/>
<path d="M4890 440 l0 -430 65 0 65 0 2 296 3 296 109 -161 c149 -218 136
-218 288 5 l113 166 3 -301 2 -301 60 0 60 0 0 430 0 430 -50 0 -49 0 -138
-205 c-76 -112 -141 -204 -145 -205 -4 0 -69 92 -145 205 l-138 205 -52 0 -53
0 0 -430z"/>
</g>
</svg>
